# xmcd
#
# Track frame offsets:
#	150
#	30145
#	51487
#	77108
#	104717
#	126140
#	154896
#	188834
#	215270
#	240586
#	257253
#	276311
#
# Disc length: 4081 seconds
#
# Revision: 1
# Processed by: cddbd v1.5.2PL0 Copyright (c) Steve Scherf et al.
# Submitted via: audiograbber 1.82.01
#
DISCID=a10fef0c
DTITLE=dj Summerset - ELECTROÿ»  vol.1 
DYEAR=2006
DGENRE=
TTITLE0=D-Pulse - Stay Alone
TTITLE1=Fuzzion - Little Girl
TTITLE2=BarBQ - Myself
TTITLE3=KMR Tribes ft. Imoto - Forget
TTITLE4=Nooncat - Air
TTITLE5=Andreish - Dzema
TTITLE6=My Space Rocet - Prizma
TTITLE7=B-Voice and KHz - Gladiola
TTITLE8=Easy Changes - Headpain
TTITLE9=Igor O'Vlasov - greyhound 3003
TTITLE10=Casual Underground - Techno 01
TTITLE11=Motor (Russia) - Vadimik
EXTD=
EXTT0=
EXTT1=
EXTT2=
EXTT3=
EXTT4=
EXTT5=
EXTT6=
EXTT7=
EXTT8=
EXTT9=
EXTT10=
EXTT11=
PLAYORDER=
